<svg xmlns="http://www.w3.org/2000/svg" version="1.1" xmlns:xlink="http://www.w3.org/1999/xlink" xmlns:svgjs="http://svgjs.dev/svgjs" width="1500" height="1500" viewBox="0 0 1500 1500"><rect width="1500" height="1500" fill="#ffffff"></rect><g transform="matrix(0.6666666666666666,0,0,0.6666666666666666,249.39393939393938,613.8150553017996)"><svg viewBox="0 0 396 108" data-background-color="#ffffff" preserveAspectRatio="xMidYMid meet" height="409" width="1500" xmlns="http://www.w3.org/2000/svg" xmlns:xlink="http://www.w3.org/1999/xlink"><g id="tight-bounds" transform="matrix(1,0,0,1,0.2400000000000091,-0.05877496061503962)"><svg viewBox="0 0 395.52 108.11754992123007" height="108.11754992123007" width="395.52"><g><svg viewBox="0 0 395.52 108.11754992123007" height="108.11754992123007" width="395.52"><g><svg viewBox="0 0 395.52000000000004 108.11754992123008" height="108.11754992123007" width="395.52"><g><svg viewBox="0 0 395.52000000000004 108.11754992123008" height="108.11754992123008" width="395.52000000000004"><g id="textblocktransform"><svg viewBox="0 0 395.52000000000004 108.11754992123008" height="108.11754992123008" width="395.52000000000004" id="textblock"><g><rect width="75.54432" height="6.764710890556164" y="97.03703767035597" fill="#edbbba" data-fill-palette-color="tertiary"></rect><rect width="75.54432" height="6.764710890556164" y="97.03703767035597" x="319.97568" fill="#edbbba" data-fill-palette-color="tertiary"></rect></g><g><svg viewBox="0 0 395.52000000000004 75.01256905727318" height="75.01256905727318" width="395.52000000000004"><g transform="matrix(1,0,0,1,0,0)"><svg width="395.52000000000004" viewBox="0.25 -32.75 197.27 37.41921875" height="75.01256905727318" data-palette-color="#f27083"><path d="M10 4.5L10 4.5Q9.25 4.5 8.72 4.05 8.2 3.6 8.2 2.95L8.2 2.95Q8.2 2.6 8.35 2.3L8.35 2.3Q9.65-0.85 12.85-5.9L12.85-5.9 14.4-8.35Q17.4-13.05 19.78-17.07 22.15-21.1 23.55-24.23 24.95-27.35 24.95-29.25L24.95-29.25Q24.95-31.35 23-31.35L23-31.35Q21.95-31.35 20.35-30.75L20.35-30.75Q18.75-30.1 16.93-29.1 15.1-28.1 13.05-26.65L13.05-26.65Q10.35-24.75 8-22.48 5.65-20.2 4.08-17.82 2.5-15.45 2-13.25L2-13.25Q1.8-12.4 1.8-11.4L1.8-11.4Q1.8-7.55 6.3-7.55L6.3-7.55Q6.65-7.55 7.68-7.83 8.7-8.1 9.75-8.45 10.8-8.8 11.1-8.95L11.1-8.95Q11.4-9.1 11.55-9.1L11.55-9.1Q11.85-9.1 11.85-8.8L11.85-8.8Q11.85-8.35 11.1-8L11.1-8Q10.7-7.8 9.7-7.5 8.7-7.2 7.73-6.95 6.75-6.7 6.3-6.7L6.3-6.7Q3.3-6.75 1.78-7.75 0.25-8.75 0.25-11.1L0.25-11.1Q0.25-11.5 0.33-12.05 0.4-12.6 0.5-13.25L0.5-13.25Q1.4-17.5 5.15-21.7L5.15-21.7Q7.65-24.5 10.7-26.75 13.75-29 16.93-30.53 20.1-32.05 22.9-32.6L22.9-32.6Q23.8-32.75 24.45-32.75L24.45-32.75Q27.3-32.75 27.3-30L27.3-30Q27.3-29.05 27-27.9L27-27.9Q26.5-25.8 25.53-23.78 24.55-21.75 23.13-19.5 21.7-17.25 19.8-14.35L19.8-14.35 16.95-10Q16.9-9.9 16.98-9.8 17.05-9.7 17.15-9.8L17.15-9.8Q17.95-10.65 19.45-12.08 20.95-13.5 23.25-15.5L23.25-15.5Q25.45-17.45 27.7-19.25 29.95-21.05 31.98-22.48 34-23.9 35.6-24.73 37.2-25.55 38.1-25.55L38.1-25.55Q40.05-25.55 40.05-23.55L40.05-23.55Q40.05-22.1 38.9-19.9L38.9-19.9Q37.8-17.9 36.73-15.88 35.65-13.85 34.65-11.85L34.65-11.85 34.6-11.85Q31-4.75 30.55-2.45L30.55-2.45Q30.45-1.9 30.4-1.48 30.35-1.05 30.35-0.75L30.35-0.75Q30.35 0.15 30.63 0.7 30.9 1.25 31.55 1.25L31.55 1.25Q32.2 1.25 33.4 0.73 34.6 0.2 35.7-0.65L35.7-0.65Q36.7-1.4 37.05-1.4L37.05-1.4Q37.25-1.4 37.25-1.25L37.25-1.25Q37.25-1.1 37.1-0.85L37.1-0.85Q36.75-0.25 35.9 0.35L35.9 0.35Q34.3 1.5 33.18 2.13 32.05 2.75 31.3 2.75L31.3 2.75Q29.9 2.75 29.03 1.85 28.15 0.95 28.15-0.7L28.15-0.7Q28.15-0.9 28.2-1.3 28.25-1.7 28.35-2.3L28.35-2.3Q28.7-3.95 29.78-6.5 30.85-9.05 32.48-12.3 34.1-15.55 36-19.2L36-19.2Q36.8-20.75 36.8-21.45L36.8-21.45Q36.8-22.25 36-22.25L36-22.25Q35.3-22.25 34.13-21.73 32.95-21.2 31.63-20.4 30.3-19.6 29.05-18.75 27.8-17.9 26.95-17.25L26.95-17.25Q24.85-15.6 22.48-13.25 20.1-10.9 17.88-8.3 15.65-5.7 13.95-3.1L13.95-3.1Q13.9-3 13.85-2.73 13.8-2.45 13.75-2.05L13.75-2.05Q13.7-1 13.53-0.2 13.35 0.6 12.85 1.5L12.85 1.5Q12.5 2.15 12.25 2.63 12 3.1 11.8 3.35L11.8 3.35Q11.1 4.5 10 4.5ZM37.75 0.85L37.75 0.85Q35.8 0.85 35.8-0.9L35.8-0.9Q35.8-1 35.82-1.25 35.85-1.5 35.9-1.85L35.9-1.85Q36.4-3.9 37.92-5.83 39.45-7.75 41.45-9.2L41.45-9.2Q42.2-9.8 43.85-9.8L43.85-9.8Q44.8-9.8 45.52-9.53 46.25-9.25 46.55-8.7L46.55-8.7Q46.85-8.2 46.85-7.55L46.85-7.55Q46.85-7.45 46.82-7.25 46.8-7.05 46.75-6.8L46.75-6.8Q46.85-6.85 47.07-6.85 47.3-6.85 47.65-6.9L47.65-6.9Q48-6.95 48.32-7 48.65-7.05 49-7.05L49-7.05 49.2-7.05Q49.75-7.05 49.32-6.63 48.9-6.2 48.2-6.1L48.2-6.1 46.5-5.9Q46-4.5 44.77-3.1 43.55-1.7 42.07-0.68 40.6 0.35 39.3 0.65L39.3 0.65Q38.55 0.85 37.75 0.85ZM44.15-6.6L44.15-6.6Q44.45-6.6 44.87-6.63 45.3-6.65 45.85-6.7L45.85-6.7Q45.9-6.8 45.9-7.15L45.9-7.15Q45.9-8.05 45.15-8.4L45.15-8.4Q44.75-8.65 44.15-8.65L44.15-8.65Q43.4-8.65 42.62-8.18 41.85-7.7 41-6.95L41-6.95Q42.05-6.6 44.15-6.6ZM39.25-0.9L39.25-0.9Q39.75-0.9 40.67-1.38 41.6-1.85 42.6-2.65 43.6-3.45 44.4-4.35L44.4-4.35Q44.65-4.6 44.9-4.98 45.15-5.35 45.45-5.75L45.45-5.75 44.25-5.6Q41.45-5.2 39.25-5.15L39.25-5.15Q38.15-3.35 37.9-2.15L37.9-2.15Q37.85-1.5 38.25-1.2 38.65-0.9 39.25-0.9ZM58.3 1.3L58.3 1.3Q57.25 1.15 56.87 0.58 56.5 0 56.5-1L56.5-1Q56.5-1.25 56.57-1.8 56.65-2.35 56.75-3.15L56.75-3.15 56.75-3.55Q56.75-4.25 56.5-4.35L56.5-4.35Q56.45-4.4 56.25-4.4L56.25-4.4Q55.9-4.4 54.95-3.75L54.95-3.75Q54.9-3.7 54.4-3.28 53.9-2.85 52.95-2.05L52.95-2.05Q50.2 0.4 49.2 0.15L49.2 0.15Q48.15-0.1 48.15-1.25L48.15-1.25Q48.15-2.35 48.95-3.9L48.95-3.9Q49.6-5.3 50.55-6.63 51.5-7.95 52.05-8.35L52.05-8.35Q52.45-8.6 52.7-8.6L52.7-8.6Q52.95-8.6 53.15-8.4L53.15-8.4Q53.25-8.3 53.25-8.1L53.25-8.1Q53.25-7.9 53-7.65L53-7.65Q52.5-7.15 52.05-6.13 51.6-5.1 51.6-4.3L51.6-4.3Q51.6-4.2 51.62-4.05 51.65-3.9 51.7-3.7L51.7-3.7Q51.95-3.55 52.25-3.55L52.25-3.55Q52.85-3.55 53.9-4.15L53.9-4.15Q54.3-4.4 55-4.88 55.7-5.35 56.7-6.1L56.7-6.1Q57.1-6.4 57.6-6.4L57.6-6.4Q58.15-6.4 58.52-6.03 58.9-5.65 58.9-5L58.9-5Q58.9-4.9 58.87-4.73 58.85-4.55 58.8-4.3L58.8-4.3Q58.7-3.9 58.6-3.55 58.5-3.2 58.45-2.85L58.45-2.85Q58.4-2.65 58.4-2.33 58.4-2 58.4-1.6L58.4-1.6Q58.4-0.5 59.55-0.5L59.55-0.5Q60.05-0.5 60.57-0.68 61.1-0.85 61.35-1.1L61.35-1.1Q63.75-3.2 66.05-6.55L66.05-6.55 66-7.15Q65.95-7.65 66.2-8.13 66.45-8.6 66.84-9.1L66.84-9.1Q67-9.3 67.25-9.3L67.25-9.3Q67.5-9.3 67.72-9.08 67.95-8.85 67.95-8.5L67.95-8.5Q67.95-8.25 67.8-7.95L67.8-7.95Q67.5-7.4 66.84-6.38 66.2-5.35 65.34-4.15 64.5-2.95 63.65-1.9 62.8-0.85 62.1-0.25L62.1-0.25 62.1-0.2Q61.25 0.55 60.15 0.98 59.05 1.4 58.3 1.3ZM86.94-4.75L86.94-4.75Q84.24-4.75 82.12-5.45 79.99-6.15 78.77-7.4 77.54-8.65 77.54-10.25L77.54-10.25Q77.54-12.05 78.62-13.6 79.69-15.15 81.42-16.32 83.14-17.5 85.04-18.1L85.04-18.1Q83.84-19 83.12-20.08 82.39-21.15 82.39-22.25L82.39-22.25Q82.39-23.7 83.47-24.88 84.54-26.05 86.17-26.8 87.79-27.55 89.34-27.6L89.34-27.6Q89.59-27.65 89.97-27.65 90.34-27.65 90.84-27.65L90.84-27.65Q93.09-27.65 94.42-27 95.74-26.35 96.59-24.85L96.59-24.85Q96.79-24.5 96.79-24.15L96.79-24.15Q96.79-23.2 96.04-22.38 95.29-21.55 94.19-21.55L94.19-21.55Q93.94-21.55 93.67-21.63 93.39-21.7 93.04-21.8L93.04-21.8Q92.54-22 92.29-22.53 92.04-23.05 92.04-23.7L92.04-23.7Q92.04-25.05 92.99-26.15L92.99-26.15Q91.94-26.6 90.44-26.6L90.44-26.6Q87.24-26.6 85.47-25.33 83.69-24.05 83.69-22.05L83.69-22.05Q83.69-21 84.31-20.05 84.94-19.1 85.94-18.4L85.94-18.4Q88.04-19.05 89.69-19.05L89.69-19.05Q93.89-19.05 93.89-17.75L93.89-17.75Q93.89-17.5 93.74-17.2L93.74-17.2Q93.39-16.55 92.52-16.23 91.64-15.9 90.54-15.9L90.54-15.9Q89.29-15.9 88.29-16.2L88.29-16.2Q87.59-16.45 86.84-16.95L86.84-16.95Q86.44-17.2 86.17-17.4 85.89-17.6 85.69-17.7L85.69-17.7Q83.19-16.85 81.72-14.98 80.24-13.1 80.24-10.95L80.24-10.95Q80.24-8.9 81.39-7.68 82.54-6.45 84.34-5.93 86.14-5.4 87.99-5.4L87.99-5.4Q90.34-5.4 92.29-6.35L92.29-6.35Q94.34-7.25 95.56-8.68 96.79-10.1 96.79-11.4L96.79-11.4Q96.79-13.1 94.94-13.75L94.94-13.75Q91.14-12.25 91.14-10.3L91.14-10.3Q91.14-9.45 90.49-9.45L90.49-9.45Q89.94-9.45 89.94-10.3L89.94-10.3Q89.94-11.45 90.77-12.25 91.59-13.05 92.79-13.6 93.99-14.15 95.12-14.53 96.24-14.9 96.84-15.1L96.84-15.1Q97.49-15.3 98.29-15.83 99.09-16.35 99.72-17.03 100.34-17.7 100.34-18.3L100.34-18.3Q100.34-18.8 99.79-19.25L99.79-19.25Q99.69-19.35 99.69-19.4L99.69-19.4Q99.69-19.65 100.02-19.85 100.34-20.05 100.54-19.85L100.54-19.85Q101.29-19.35 101.29-18.5L101.29-18.5Q101.29-17.75 100.59-16.93 99.89-16.1 98.92-15.45 97.94-14.8 97.09-14.5L97.09-14.5 96.29-14.25Q98.54-13.75 98.54-11.95L98.54-11.95Q98.54-11.6 98.29-10.7L98.29-10.7Q97.84-9.35 96.49-8L96.49-8Q95.09-6.65 92.69-5.7 90.29-4.75 86.94-4.75ZM93.59-22.8L93.59-22.8Q94.04-22.65 94.39-23.08 94.74-23.5 94.74-24.05L94.74-24.05Q94.74-24.05 94.64-24.45L94.64-24.45Q94.24-25.5 93.34-25.9L93.34-25.9Q92.54-25.05 92.54-24.1L92.54-24.1Q92.54-23.1 93.59-22.8ZM90.49-16.8L90.49-16.8Q91.69-16.8 91.89-17.45L91.89-17.45 91.89-17.55Q91.89-17.85 91.44-18.05L91.44-18.05Q90.84-18.3 89.89-18.3L89.89-18.3Q88.59-18.3 87.24-17.95L87.24-17.95Q87.54-17.7 87.92-17.5 88.29-17.3 88.74-17.1L88.74-17.1Q89.49-16.8 90.49-16.8ZM118.94-13.35L118.94-13.35Q118.34-13.35 117.89-13.55L117.89-13.55Q116.54-13.95 115.14-15.25L115.14-15.25Q113.73-16.6 112.71-18.48 111.69-20.35 111.48-22.2L111.48-22.2Q111.44-22.4 111.44-22.7 111.44-23 111.44-23.4L111.44-23.4Q111.44-29.85 119.54-29.85L119.54-29.85Q123.54-29.85 128.34-28.6 133.13-27.35 139.49-25.25L139.49-25.25Q141.09-24.7 142.19-24.35 143.28-24 143.78-23.85L143.78-23.85Q145.49-23.35 146.94-23.35L146.94-23.35Q148.53-23.35 149.29-23.98 150.04-24.6 149.99-25.35L149.99-25.35 149.99-25.55Q149.99-26.15 150.34-26.15L150.34-26.15Q150.74-26.15 151.19-25.55L151.19-25.55Q151.38-25.3 151.38-24.85L151.38-24.85Q151.38-23.8 150.24-22.9 149.09-22 146.74-22L146.74-22Q144.59-22 141.99-22.7 139.38-23.4 135.24-24.75L135.24-24.75Q130.59-26.25 127.59-27.03 124.59-27.8 121.99-27.8L121.99-27.8Q115.89-27.8 114.23-22.45L114.23-22.45Q114.09-21.95 114.09-21.3L114.09-21.3Q114.09-20.05 114.76-18.48 115.44-16.9 116.44-15.68 117.44-14.45 118.39-14.25L118.39-14.25 118.73-14.25Q119.94-14.25 119.94-13.8L119.94-13.8Q119.94-13.65 119.69-13.5L119.69-13.5Q119.39-13.35 118.94-13.35ZM122.14 4.65L122.14 4.65Q119.79 4.15 119.79 2.1L119.79 2.1Q119.79 1.1 120.29-0.55L120.29-0.55Q120.79-2 121.21-3.13 121.64-4.25 122.04-5.05L122.04-5.05Q122.44-5.85 123.01-6.85 123.59-7.85 124.39-9.1L124.39-9.1 121.89-7.65Q121.24-7.3 120.74-7.05 120.24-6.8 119.84-6.7L119.84-6.7Q119.79-6.7 119.76-6.68 119.73-6.65 119.69-6.65L119.69-6.65Q119.44-6.65 119.44-7.05L119.44-7.05Q119.44-7.6 119.81-8.4 120.19-9.2 120.54-9.45L120.54-9.45Q121.19-9.8 121.74-10.05 122.29-10.3 122.69-10.4L122.69-10.4Q122.84-10.45 123.04-10.53 123.24-10.6 123.49-10.65L123.49-10.65Q123.94-10.8 124.69-11.1L124.69-11.1Q125.44-11.45 125.89-11.5L125.89-11.5Q125.89-11.5 126.24-12.03 126.59-12.55 127.29-13.6L127.29-13.6Q129.38-16.85 129.88-17.75L129.88-17.75Q131.09-19.9 132.03-21.1L132.03-21.1Q132.59-21.85 133.59-21.85L133.59-21.85Q134.28-21.85 134.88-21.5 135.49-21.15 135.49-20.75L135.49-20.75Q135.49-20.5 135.28-20.35L135.28-20.35Q133.88-19.15 131.96-16.98 130.03-14.8 128.19-12.35L128.19-12.35Q132.19-13.4 135.69-13.4L135.69-13.4Q136.49-13.4 136.84-13.25L136.84-13.25Q137.24-13 137.24-12.8L137.24-12.8Q137.24-12.65 136.94-12.4L136.94-12.4Q136.78-12.3 136.56-12.25 136.34-12.2 136.09-12.15L136.09-12.15Q134.19-12.05 132.74-11.8 131.28-11.55 129.91-11.13 128.53-10.7 126.84-10L126.84-10Q125.79-8.5 125.09-7.48 124.39-6.45 123.94-5.58 123.49-4.7 123.09-3.68 122.69-2.65 122.24-1.15L122.24-1.15Q121.74 0.35 121.74 1.25L121.74 1.25Q121.74 2.65 122.99 2.95L122.99 2.95Q123.44 3 123.44 3.45L123.44 3.45Q123.44 3.9 123.01 4.33 122.59 4.75 122.14 4.65ZM134.88 0.85L134.88 0.85Q132.93 0.85 132.93-0.9L132.93-0.9Q132.93-1 132.96-1.25 132.98-1.5 133.03-1.85L133.03-1.85Q133.53-3.9 135.06-5.83 136.58-7.75 138.58-9.2L138.58-9.2Q139.33-9.8 140.98-9.8L140.98-9.8Q141.93-9.8 142.66-9.53 143.38-9.25 143.68-8.7L143.68-8.7Q143.98-8.2 143.98-7.55L143.98-7.55Q143.98-7.45 143.96-7.25 143.93-7.05 143.88-6.8L143.88-6.8Q143.98-6.85 144.21-6.85 144.43-6.85 144.78-6.9L144.78-6.9Q145.13-6.95 145.46-7 145.78-7.05 146.13-7.05L146.13-7.05 146.33-7.05Q146.88-7.05 146.46-6.63 146.03-6.2 145.33-6.1L145.33-6.1 143.63-5.9Q143.13-4.5 141.91-3.1 140.68-1.7 139.21-0.68 137.73 0.35 136.43 0.65L136.43 0.65Q135.68 0.85 134.88 0.85ZM141.28-6.6L141.28-6.6Q141.58-6.6 142.01-6.63 142.43-6.65 142.98-6.7L142.98-6.7Q143.03-6.8 143.03-7.15L143.03-7.15Q143.03-8.05 142.28-8.4L142.28-8.4Q141.88-8.65 141.28-8.65L141.28-8.65Q140.53-8.65 139.76-8.18 138.98-7.7 138.13-6.95L138.13-6.95Q139.18-6.6 141.28-6.6ZM136.38-0.9L136.38-0.9Q136.88-0.9 137.81-1.38 138.73-1.85 139.73-2.65 140.73-3.45 141.53-4.35L141.53-4.35Q141.78-4.6 142.03-4.98 142.28-5.35 142.58-5.75L142.58-5.75 141.38-5.6Q138.58-5.2 136.38-5.15L136.38-5.15Q135.28-3.35 135.03-2.15L135.03-2.15Q134.98-1.5 135.38-1.2 135.78-0.9 136.38-0.9ZM145.03 1.05L145.03 1.05Q144.38 1.05 144.38-0.1L144.38-0.1Q144.38-1.05 144.83-1.95L144.83-1.95Q145.98-4.15 146.93-6.3L146.93-6.3Q147.58-7.6 148.16-8.8 148.73-10 149.23-11L149.23-11Q149.53-11.3 149.83-11.3L149.83-11.3Q150.48-11.3 150.23-10.7L150.23-10.7Q150.13-10.35 149.96-9.88 149.78-9.4 149.53-8.75L149.53-8.75Q148.73-6.65 148.58-5.8L148.58-5.8Q149.98-7.05 151.46-8.13 152.93-9.2 154.23-9.9 155.53-10.6 156.43-10.6L156.43-10.6Q157.23-10.6 157.23-9.95L157.23-9.95Q157.23-9.4 156.73-8.78 156.23-8.15 155.73-8.15L155.73-8.15Q155.48-8.15 155.33-8.3L155.33-8.3Q155.18-8.35 154.73-8.35L154.73-8.35Q153.13-8.35 151.38-6.8L151.38-6.8Q149.53-5.25 148.03-3.08 146.53-0.9 145.83 0.7L145.83 0.7Q145.48 1.05 145.03 1.05ZM157.73 0.55L157.73 0.55Q156.68 0.55 155.88 0L155.88 0Q154.58-1 154.58-3L154.58-3Q154.58-5 155.98-7.25 157.38-9.5 160.23-11.4L160.23-11.4Q160.73-11.75 161.58-11.75L161.58-11.75Q162.68-11.75 163.55-11.15 164.43-10.55 164.23-9.6L164.23-9.6Q163.88-8.05 162.7-6.85 161.53-5.65 159.95-4.73 158.38-3.8 156.73-2.95L156.73-2.95Q156.68-2.8 156.65-2.65 156.63-2.5 156.63-2.35L156.63-2.35Q156.63-1.65 157.1-1.13 157.58-0.6 158.43-0.6L158.43-0.6Q159.08-0.6 159.53-0.8L159.53-0.8Q160.33-1.1 160.85-1.35 161.38-1.6 162.08-2.1 162.78-2.6 163.98-3.6L163.98-3.6Q164.53-4 164.63-4L164.63-4Q164.93-4 164.83-3.55L164.83-3.55Q164.33-2.75 163.1-1.8 161.88-0.85 160.4-0.15 158.93 0.55 157.73 0.55ZM157.03-4.3L157.03-4.3Q157.43-4.3 158.68-5.1 159.93-5.9 161.03-6.85L161.03-6.85Q162.93-8.6 162.93-9.55L162.93-9.55Q162.93-9.8 162.78-10L162.78-10Q162.63-10.25 162.33-10.25L162.33-10.25Q161.38-10.25 159.13-8L159.13-8Q157.58-6.5 157.03-4.3ZM165.83 1.8L165.83 1.8Q164.73 1.8 164.93-0.9L164.93-0.9Q165.03-1.5 165.35-2.8 165.68-4.1 166.18-5.68 166.68-7.25 167.13-8.5L167.13-8.5Q167.43-9.35 168.2-10.1 168.98-10.85 169.48-10.85L169.48-10.85Q169.78-10.85 169.78-10.45L169.78-10.45Q169.78-9.9 169.18-8.75L169.18-8.75Q168.43-7.35 167.98-6.38 167.53-5.4 167.25-4.42 166.98-3.45 166.68-2.05L166.68-2.05 166.68-1.6Q166.68 0 167.38-0.6L167.38-0.6Q168.68-1.65 170.08-3.08 171.48-4.5 172.73-5.95 173.98-7.4 174.73-8.5L174.73-8.5Q175.23-9.3 175.9-9.73 176.58-10.15 176.48-9.85L176.48-9.85Q176.43-9.4 175.65-8.2 174.88-7 173.75-5.53 172.63-4.05 171.45-2.7 170.28-1.35 169.38-0.6L169.38-0.6Q169.03-0.25 168.35 0.33 167.68 0.9 166.98 1.35 166.28 1.8 165.83 1.8ZM178.27 0.55L178.27 0.55Q177.22 0.55 176.42 0L176.42 0Q175.12-1 175.12-3L175.12-3Q175.12-5 176.52-7.25 177.92-9.5 180.77-11.4L180.77-11.4Q181.27-11.75 182.12-11.75L182.12-11.75Q183.22-11.75 184.1-11.15 184.97-10.55 184.77-9.6L184.77-9.6Q184.42-8.05 183.25-6.85 182.07-5.65 180.5-4.73 178.92-3.8 177.27-2.95L177.27-2.95Q177.22-2.8 177.2-2.65 177.17-2.5 177.17-2.35L177.17-2.35Q177.17-1.65 177.65-1.13 178.12-0.6 178.97-0.6L178.97-0.6Q179.62-0.6 180.07-0.8L180.07-0.8Q180.87-1.1 181.4-1.35 181.92-1.6 182.62-2.1 183.32-2.6 184.52-3.6L184.52-3.6Q185.07-4 185.17-4L185.17-4Q185.47-4 185.37-3.55L185.37-3.55Q184.87-2.75 183.65-1.8 182.42-0.85 180.95-0.15 179.47 0.55 178.27 0.55ZM177.57-4.3L177.57-4.3Q177.97-4.3 179.22-5.1 180.47-5.9 181.57-6.85L181.57-6.85Q183.47-8.6 183.47-9.55L183.47-9.55Q183.47-9.8 183.32-10L183.32-10Q183.17-10.25 182.87-10.25L182.87-10.25Q181.92-10.25 179.67-8L179.67-8Q178.12-6.5 177.57-4.3ZM185.32 1.05L185.32 1.05Q184.67 1.05 184.67-0.1L184.67-0.1Q184.67-1.05 185.12-1.95L185.12-1.95Q186.27-4.15 187.22-6.3L187.22-6.3Q187.87-7.6 188.45-8.8 189.02-10 189.52-11L189.52-11Q189.82-11.3 190.12-11.3L190.12-11.3Q190.77-11.3 190.52-10.7L190.52-10.7Q190.42-10.35 190.25-9.88 190.07-9.4 189.82-8.75L189.82-8.75Q189.02-6.65 188.87-5.8L188.87-5.8Q190.27-7.05 191.75-8.13 193.22-9.2 194.52-9.9 195.82-10.6 196.72-10.6L196.72-10.6Q197.52-10.6 197.52-9.95L197.52-9.95Q197.52-9.4 197.02-8.78 196.52-8.15 196.02-8.15L196.02-8.15Q195.77-8.15 195.62-8.3L195.62-8.3Q195.47-8.35 195.02-8.35L195.02-8.35Q193.42-8.35 191.67-6.8L191.67-6.8Q189.82-5.25 188.32-3.08 186.82-0.9 186.12 0.7L186.12 0.7Q185.77 1.05 185.32 1.05Z" opacity="1" transform="matrix(1,0,0,1,0,0)" fill="#f27083" class="wordmark-text-0" data-fill-palette-color="primary" id="text-0"></path></svg></g></svg></g><g transform="matrix(1,0,0,1,75.54432,92.72123631003801)"><svg viewBox="0 0 244.43136000000004 15.396313611192074" height="15.396313611192074" width="244.43136000000004"><g transform="matrix(1,0,0,1,8,0)"><svg width="228.43136000000004" viewBox="-0.1 -36.25 686.12 46.25" height="15.396313611192074" data-palette-color="#f27083"><path d="M23.9 0.35L23.9 0.35Q22.1 0.35 19.83-0.3 17.55-0.95 15.08-1.73 12.6-2.5 10.15-2.85L10.15-2.85Q8.45-1.25 6.98-0.58 5.5 0.1 4.35 0.1L4.35 0.1Q2.9 0.1 1.9-0.75 0.9-1.6 0.4-2.93-0.1-4.25-0.1-5.65L-0.1-5.65Q-0.1-7.1 0.43-8.4 0.95-9.7 2.05-10.53 3.15-11.35 4.85-11.35L4.85-11.35Q5.2-11.35 5.6-11.3 6-11.25 6.45-11.15L6.45-11.15Q7.4-14.05 8.13-17.57 8.85-21.1 9.28-24.5 9.7-27.9 9.7-30.4L9.7-30.4Q9.7-31.4 9.6-31.83 9.5-32.25 9.25-32.7L9.25-32.7 9.2-32.85Q9.8-34.45 11.2-35.35 12.6-36.25 14.15-36.25L14.15-36.25Q15.85-36.25 16.95-35.02 18.05-33.8 18.05-30.95L18.05-30.95Q18.05-29.15 17.63-26.48 17.2-23.8 16.45-20.73 15.7-17.65 14.8-14.65 13.9-11.65 13-9.3L13-9.3Q15.2-8.8 17.43-8.15 19.65-7.5 21.8-7.5L21.8-7.5Q23.45-7.5 24.98-8.1 26.5-8.7 27.85-10.3L27.85-10.3Q28.85-9.65 29.33-8.45 29.8-7.25 29.8-5.9L29.8-5.9Q29.8-4.4 29.18-2.98 28.55-1.55 27.25-0.6 25.95 0.35 23.9 0.35ZM43.6 0.35L43.6 0.35Q39.85 0.35 37.4-1.15 34.95-2.65 33.77-5.13 32.6-7.6 32.6-10.4L32.6-10.4Q32.6-13.05 33.57-15.7 34.55-18.35 36.42-20.53 38.3-22.7 41-24.03 43.7-25.35 47.2-25.35L47.2-25.35Q50.95-25.35 53.37-23.83 55.8-22.3 56.97-19.8 58.15-17.3 58.15-14.45L58.15-14.45Q58.15-11.85 57.2-9.22 56.25-6.6 54.37-4.42 52.5-2.25 49.8-0.95 47.1 0.35 43.6 0.35ZM44.95-3.9L44.95-3.9Q46.3-3.9 47.2-5.3 48.1-6.7 48.55-8.88 49-11.05 49-13.3L49-13.3Q49-15.3 48.62-17.07 48.25-18.85 47.5-19.98 46.75-21.1 45.55-21.1L45.55-21.1Q44.25-21.1 43.32-19.7 42.4-18.3 41.95-16.15 41.5-14 41.5-11.7L41.5-11.7Q41.5-9.7 41.87-7.93 42.25-6.15 43-5.03 43.75-3.9 44.95-3.9ZM68.5 0.2L68.5 0.2Q65.59 0.2 63.9-1.33 62.2-2.85 62.2-6.05L62.2-6.05Q62.2-7.9 62.67-10 63.15-12.1 63.59-13.75L63.59-13.75Q64.05-15.35 64.32-16.55 64.59-17.75 64.59-18.4L64.59-18.4Q64.59-19.2 64.25-19.55 63.9-19.9 63.4-19.9L63.4-19.9Q62.2-19.9 61.4-18.75L61.4-18.75 61.2-18.95Q61.25-20.65 62.3-22.08 63.34-23.5 65-24.35 66.64-25.2 68.34-25.2L68.34-25.2Q70.25-25.2 71.59-24.08 72.95-22.95 72.84-20.55L72.84-20.55Q72.8-19.5 72.47-17.9 72.15-16.3 71.59-14.1L71.59-14.1Q71.25-12.7 70.87-10.93 70.5-9.15 70.5-7.7L70.5-7.7Q70.5-6.6 70.84-5.95 71.2-5.3 72-5.3L72-5.3Q73.05-5.3 74.32-6.48 75.59-7.65 76.55-10.33 77.5-13 77.65-17.45L77.65-17.45Q77.8-20.85 77.2-22.4L77.2-22.4 77.2-22.65Q77.65-23.35 78.57-24 79.5-24.65 80.65-25.08 81.8-25.5 82.8-25.5L82.8-25.5Q84.4-25.5 85.52-23.95 86.65-22.4 86.5-18.55L86.5-18.55Q86.4-14.85 85.17-11.85 83.95-8.85 82-6.6 80.05-4.35 77.72-2.85 75.4-1.35 73-0.58 70.59 0.2 68.5 0.2ZM99.54 0.35L99.54 0.35Q95.89 0.35 93.49-1.13 91.09-2.6 89.89-5.03 88.69-7.45 88.69-10.25L88.69-10.25Q88.69-12.9 89.72-15.58 90.74-18.25 92.72-20.45 94.69-22.65 97.52-24 100.34-25.35 103.89-25.35L103.89-25.35Q108.29-25.35 110.32-23.38 112.34-21.4 112.34-18.6L112.34-18.6Q112.34-16.2 111.07-14.18 109.79-12.15 107.69-10.93 105.59-9.7 103.09-9.7L103.09-9.7Q101.79-9.7 100.44-10.1 99.09-10.5 97.79-11.35L97.79-11.35Q98.04-8.25 99.59-6.85 101.14-5.45 103.29-5.45L103.29-5.45Q104.79-5.45 106.29-6.03 107.79-6.6 109.07-7.53 110.34-8.45 111.04-9.5L111.04-9.5 111.39-9.25Q111.39-6.65 110.32-4.83 109.24-3 107.49-1.85 105.74-0.7 103.67-0.18 101.59 0.35 99.54 0.35ZM100.69-13.15L100.69-13.15Q102.29-13.15 103.29-14.08 104.29-15 104.79-16.25 105.29-17.5 105.29-18.45L105.29-18.45Q105.29-19.6 104.64-20.38 103.99-21.15 102.84-21.15L102.84-21.15Q101.94-21.15 100.87-20.5 99.79-19.85 98.94-18.28 98.09-16.7 97.84-13.9L97.84-13.9Q99.44-13.15 100.69-13.15ZM132.34 0.45L132.34 0.45Q129.24 0.45 127.19-0.4 125.14-1.25 124.14-2.58 123.14-3.9 123.14-5.25L123.14-5.25Q123.14-7.15 124.84-8.63 126.54-10.1 129.44-10.1L129.44-10.1Q129.44-7.55 130.09-6.03 130.74-4.5 131.76-3.85 132.79-3.2 133.74-3.2L133.74-3.2Q134.89-3.2 135.66-3.88 136.44-4.55 136.44-5.55L136.44-5.55Q136.44-6.95 134.99-8 133.54-9.05 131.24-10.35L131.24-10.35Q130.09-11.05 128.74-11.98 127.39-12.9 126.44-14.23 125.49-15.55 125.49-17.4L125.49-17.4Q125.49-19.35 126.61-20.85 127.74-22.35 129.59-23.38 131.44-24.4 133.59-24.93 135.74-25.45 137.79-25.45L137.79-25.45Q141.64-25.45 143.59-23.9 145.54-22.35 145.54-20.6L145.54-20.6Q145.54-19.1 144.04-17.9 142.54-16.7 139.44-16.7L139.44-16.7Q139.49-19.25 138.39-20.43 137.29-21.6 136.04-21.6L136.04-21.6Q135.14-21.6 134.54-21.05 133.94-20.5 133.94-19.45L133.94-19.45Q133.94-18.25 134.71-17.38 135.49-16.5 136.66-15.83 137.84-15.15 139.09-14.55L139.09-14.55Q140.79-13.75 142.29-12.85 143.79-11.95 144.74-10.8 145.69-9.65 145.69-8L145.69-8Q145.69-5.75 143.86-3.83 142.04-1.9 138.99-0.73 135.94 0.45 132.34 0.45ZM155.69 0.2L155.69 0.2Q154.09 0.2 152.66-0.53 151.24-1.25 150.36-2.8 149.49-4.35 149.49-6.75L149.49-6.75Q149.49-8.05 149.74-10.15 149.99-12.25 150.41-14.75 150.84-17.25 151.28-19.75L151.28-19.75Q150.28-19.7 149.36-19.55 148.44-19.4 147.53-19.2L147.53-19.2 147.44-19.55Q148.44-20.75 149.53-21.6 150.64-22.45 151.84-23L151.84-23Q152.49-26.3 152.94-28.73 153.39-31.15 153.39-31.6L153.39-31.6Q153.39-32.45 154.71-33 156.03-33.55 157.69-33.55L157.69-33.55Q159.14-33.55 160.41-33 161.69-32.45 162.14-31.15L162.14-31.15Q161.84-30.85 161.28-28.93 160.74-27 160.14-24.25L160.14-24.25Q161.09-24.2 162.09-24.15 163.09-24.1 164.14-24L164.14-24Q164.24-23.7 164.28-23.35 164.34-23 164.34-22.6L164.34-22.6Q164.34-21.85 164.11-20.98 163.89-20.1 163.59-19.4L163.59-19.4Q162.39-19.5 161.34-19.63 160.28-19.75 159.28-19.8L159.28-19.8Q158.89-17.65 158.56-15.5 158.24-13.35 158.06-11.6 157.89-9.85 157.89-8.85L157.89-8.85Q157.89-6.75 158.66-6.05 159.44-5.35 160.53-5.35L160.53-5.35Q161.53-5.35 162.34-5.75 163.14-6.15 163.49-6.7L163.49-6.7 163.99-6.55Q163.69-4.5 162.39-2.98 161.09-1.45 159.28-0.63 157.49 0.2 155.69 0.2ZM177.13 0.35L177.13 0.35Q173.38 0.35 170.93-1.15 168.48-2.65 167.31-5.13 166.13-7.6 166.13-10.4L166.13-10.4Q166.13-13.05 167.11-15.7 168.08-18.35 169.96-20.53 171.83-22.7 174.53-24.03 177.23-25.35 180.73-25.35L180.73-25.35Q184.48-25.35 186.91-23.83 189.33-22.3 190.51-19.8 191.68-17.3 191.68-14.45L191.68-14.45Q191.68-11.85 190.73-9.22 189.78-6.6 187.91-4.42 186.03-2.25 183.33-0.95 180.63 0.35 177.13 0.35ZM178.48-3.9L178.48-3.9Q179.83-3.9 180.73-5.3 181.63-6.7 182.08-8.88 182.53-11.05 182.53-13.3L182.53-13.3Q182.53-15.3 182.16-17.07 181.78-18.85 181.03-19.98 180.28-21.1 179.08-21.1L179.08-21.1Q177.78-21.1 176.86-19.7 175.93-18.3 175.48-16.15 175.03-14 175.03-11.7L175.03-11.7Q175.03-9.7 175.41-7.93 175.78-6.15 176.53-5.03 177.28-3.9 178.48-3.9ZM200.43 0.2L200.43 0.2Q198.63 0.2 197.23-1.28 195.83-2.75 195.83-5.45L195.83-5.45Q195.83-6.75 196.13-8.4 196.43-10.05 196.83-11.78 197.23-13.5 197.53-15.03 197.83-16.55 197.83-17.55L197.83-17.55Q197.83-18.6 197.46-19.23 197.08-19.85 196.48-19.85L196.48-19.85Q195.53-19.85 194.53-18.55L194.53-18.55 194.23-18.75Q194.18-19.55 194.58-20.65 194.98-21.75 195.83-22.78 196.68-23.8 198.01-24.5 199.33-25.2 201.13-25.2L201.13-25.2Q203.78-25.2 204.98-23.68 206.18-22.15 206.18-20L206.18-20Q206.18-19.65 206.16-19.28 206.13-18.9 206.08-18.55L206.08-18.55Q207.88-21.8 209.86-23.53 211.83-25.25 213.53-25.25L213.53-25.25Q215.13-25.25 215.88-24 216.63-22.75 216.63-21L216.63-21Q216.63-19.4 216.01-17.75 215.38-16.1 214.16-15.03 212.93-13.95 211.18-14L211.18-14 210.98-14.1Q210.93-15.4 210.13-16.15 209.33-16.9 208.33-16.9L208.33-16.9Q206.98-16.9 205.81-15.55 204.63-14.2 204.63-11.65L204.63-11.65Q204.63-10.1 204.98-8.3 205.33-6.5 205.33-5.25L205.33-5.25Q205.33-3.75 204.63-2.5 203.93-1.25 202.83-0.53 201.73 0.2 200.43 0.2ZM228.48 10L228.48 10Q225.98 10 224.45 8.47 222.93 6.95 222.93 4.35L222.93 4.35Q222.93 3 223.4 1.38 223.88-0.25 224.98-2.05L224.98-2.05Q222.53-2.2 220.95-3.7 219.38-5.2 219.38-8.25L219.38-8.25Q219.38-10.05 219.85-12.13 220.33-14.2 220.78-16.03 221.23-17.85 221.23-18.85L221.23-18.85Q221.23-19.6 220.93-19.93 220.63-20.25 220.23-20.25L220.23-20.25Q219.83-20.25 219.35-19.93 218.88-19.6 218.63-18.95L218.63-18.95 217.78-19.85Q218.08-21.4 219.08-22.6 220.08-23.8 221.53-24.5 222.98-25.2 224.53-25.2L224.53-25.2Q226.28-25.2 227.58-24.08 228.88-22.95 228.88-20L228.88-20Q228.88-18.15 228.43-16.03 227.98-13.9 227.53-12.03 227.08-10.15 227.08-9.05L227.08-9.05Q227.08-8.05 227.5-7.58 227.93-7.1 228.48-7.1L228.48-7.1Q229.18-7.1 230.08-7.88 230.98-8.65 231.78-10.45 232.58-12.25 232.83-15.3L232.83-15.3Q232.93-16.25 232.98-17.73 233.03-19.2 233.08-20.48 233.13-21.75 233.13-22.05L233.13-22.05Q233.13-23.85 234.45-24.58 235.78-25.3 237.38-25.3L237.38-25.3Q238.78-25.3 240.03-24.75 241.28-24.2 241.73-22.9L241.73-22.9 241.83-22.6Q241.38-22.2 241.05-19.9 240.73-17.6 240.28-13.75L240.28-13.75Q239.98-11.25 239.53-8.1 239.08-4.95 238.3-1.78 237.53 1.4 236.25 4.08 234.98 6.75 233.08 8.38 231.18 10 228.48 10ZM227.28 4.25L227.28 4.25Q228.83 4.25 230.05 1.43 231.28-1.4 231.98-6.6L231.98-6.6Q228.78-2.5 227.58-0.15 226.38 2.2 226.38 3.25L226.38 3.25Q226.38 4.25 227.28 4.25ZM260.37 0.2L260.37 0.2Q257.77 0.2 256.15-1.33 254.52-2.85 254.52-6.05L254.52-6.05Q254.52-7.65 254.9-9.43 255.27-11.2 255.75-12.93 256.22-14.65 256.57-16.05 256.92-17.45 256.92-18.3L256.92-18.3Q256.92-19.15 256.57-19.53 256.22-19.9 255.72-19.9L255.72-19.9Q255.22-19.9 254.72-19.58 254.22-19.25 253.87-18.6L253.87-18.6 253.47-18.75Q253.57-20.8 254.62-22.25 255.67-23.7 257.25-24.45 258.82-25.2 260.42-25.2L260.42-25.2Q261.72-25.2 262.92-24.68 264.12-24.15 264.85-23.08 265.57-22 265.52-20.35L265.52-20.35Q265.47-19.25 265.12-17.65 264.77-16.05 264.3-14.23 263.82-12.4 263.47-10.7 263.12-9 263.12-7.7L263.12-7.7Q263.12-6.6 263.45-5.95 263.77-5.3 264.57-5.3L264.57-5.3Q265.42-5.3 266.82-6.2 268.22-7.1 269.62-8.8L269.62-8.8Q269.32-11.6 269.32-13.75L269.32-13.75Q269.32-19.25 270.95-21.7 272.57-24.15 275.02-24.15L275.02-24.15Q276.82-24.15 277.47-22.95 278.12-21.75 278.12-19.75L278.12-19.75Q278.12-16.8 277.12-14.2 276.12-11.6 274.77-10.05L274.77-10.05Q274.87-7.8 275.7-6.55 276.52-5.3 277.67-5.3L277.67-5.3Q278.82-5.3 280.05-6.6 281.27-7.9 282.17-10.6 283.07-13.3 283.22-17.45L283.22-17.45Q283.27-20.8 282.77-22.35L282.77-22.35 282.77-22.6Q283.47-23.75 285-24.58 286.52-25.4 288.07-25.4L288.07-25.4Q289.17-25.4 290.1-24.78 291.02-24.15 291.57-22.48 292.12-20.8 291.97-17.65L291.97-17.65Q291.82-13.25 290.52-9.93 289.22-6.6 287.2-4.35 285.17-2.1 282.82-0.95 280.47 0.2 278.17 0.2L278.17 0.2Q275.57 0.2 273.42-1.23 271.27-2.65 270.17-5.25L270.17-5.25Q267.92-2.9 265.55-1.35 263.17 0.2 260.37 0.2ZM300.12 0.2L300.12 0.2Q298.32 0.2 296.92-1.28 295.52-2.75 295.52-5.45L295.52-5.45Q295.52-6.75 295.82-8.4 296.12-10.05 296.52-11.78 296.92-13.5 297.22-15.03 297.52-16.55 297.52-17.55L297.52-17.55Q297.52-18.6 297.15-19.23 296.77-19.85 296.17-19.85L296.17-19.85Q295.22-19.85 294.22-18.55L294.22-18.55 293.92-18.75Q293.87-19.55 294.27-20.65 294.67-21.75 295.52-22.78 296.37-23.8 297.7-24.5 299.02-25.2 300.82-25.2L300.82-25.2Q303.47-25.2 304.67-23.68 305.87-22.15 305.87-20L305.87-20Q305.87-19.65 305.85-19.28 305.82-18.9 305.77-18.55L305.77-18.55Q307.57-21.8 309.55-23.53 311.52-25.25 313.22-25.25L313.22-25.25Q314.82-25.25 315.57-24 316.32-22.75 316.32-21L316.32-21Q316.32-19.4 315.7-17.75 315.07-16.1 313.85-15.03 312.62-13.95 310.87-14L310.87-14 310.67-14.1Q310.62-15.4 309.82-16.15 309.02-16.9 308.02-16.9L308.02-16.9Q306.67-16.9 305.5-15.55 304.32-14.2 304.32-11.65L304.32-11.65Q304.32-10.1 304.67-8.3 305.02-6.5 305.02-5.25L305.02-5.25Q305.02-3.75 304.32-2.5 303.62-1.25 302.52-0.53 301.42 0.2 300.12 0.2ZM327.22-26.75L327.22-26.75Q325.22-26.75 323.94-27.98 322.67-29.2 322.67-31.05L322.67-31.05Q322.67-33.05 324.17-34.5 325.67-35.95 327.82-35.95L327.82-35.95Q329.82-35.95 331.09-34.7 332.37-33.45 332.37-31.6L332.37-31.6Q332.37-29.6 330.87-28.18 329.37-26.75 327.22-26.75ZM323.72 0.2L323.72 0.2Q321.77 0.2 320.22-1.18 318.67-2.55 318.67-5.6L318.67-5.6Q318.67-7.35 319.14-8.88 319.62-10.4 320.24-11.85 320.87-13.3 321.34-14.68 321.82-16.05 321.82-17.4L321.82-17.4Q321.82-18.6 321.42-19.13 321.02-19.65 320.47-19.65L320.47-19.65Q319.62-19.65 318.82-18.55L318.82-18.55 318.47-18.75Q318.67-20.75 319.74-22.18 320.82-23.6 322.39-24.4 323.97-25.2 325.52-25.2L325.52-25.2Q327.42-25.2 328.82-23.98 330.22-22.75 330.22-20L330.22-20Q330.22-18.35 329.74-16.53 329.27-14.7 328.64-12.9 328.02-11.1 327.54-9.55 327.07-8 327.07-6.9L327.07-6.9Q327.07-5.95 327.44-5.55 327.82-5.15 328.27-5.15L328.27-5.15Q328.72-5.15 329.14-5.43 329.57-5.7 329.77-6.05L329.77-6.05 330.12-5.95Q330.12-4.1 329.14-2.73 328.17-1.35 326.72-0.58 325.27 0.2 323.72 0.2ZM341.17 0.2L341.17 0.2Q339.57 0.2 338.14-0.53 336.72-1.25 335.84-2.8 334.97-4.35 334.97-6.75L334.97-6.75Q334.97-8.05 335.22-10.15 335.47-12.25 335.89-14.75 336.32-17.25 336.77-19.75L336.77-19.75Q335.77-19.7 334.84-19.55 333.92-19.4 333.02-19.2L333.02-19.2 332.92-19.55Q333.92-20.75 335.02-21.6 336.12-22.45 337.32-23L337.32-23Q337.97-26.3 338.42-28.73 338.87-31.15 338.87-31.6L338.87-31.6Q338.87-32.45 340.19-33 341.52-33.55 343.17-33.55L343.17-33.55Q344.62-33.55 345.89-33 347.17-32.45 347.62-31.15L347.62-31.15Q347.32-30.85 346.77-28.93 346.22-27 345.62-24.25L345.62-24.25Q346.57-24.2 347.57-24.15 348.57-24.1 349.62-24L349.62-24Q349.72-23.7 349.77-23.35 349.82-23 349.82-22.6L349.82-22.6Q349.82-21.85 349.59-20.98 349.37-20.1 349.07-19.4L349.07-19.4Q347.87-19.5 346.82-19.63 345.77-19.75 344.77-19.8L344.77-19.8Q344.37-17.65 344.04-15.5 343.72-13.35 343.54-11.6 343.37-9.85 343.37-8.85L343.37-8.85Q343.37-6.75 344.14-6.05 344.92-5.35 346.02-5.35L346.02-5.35Q347.02-5.35 347.82-5.75 348.62-6.15 348.97-6.7L348.97-6.7 349.47-6.55Q349.17-4.5 347.87-2.98 346.57-1.45 344.77-0.63 342.97 0.2 341.17 0.2ZM358.81 0.2L358.81 0.2Q357.21 0.2 355.79-0.53 354.36-1.25 353.49-2.8 352.61-4.35 352.61-6.75L352.61-6.75Q352.61-8.05 352.86-10.15 353.11-12.25 353.54-14.75 353.96-17.25 354.41-19.75L354.41-19.75Q353.41-19.7 352.49-19.55 351.56-19.4 350.66-19.2L350.66-19.2 350.56-19.55Q351.56-20.75 352.66-21.6 353.76-22.45 354.96-23L354.96-23Q355.61-26.3 356.06-28.73 356.51-31.15 356.51-31.6L356.51-31.6Q356.51-32.45 357.84-33 359.16-33.55 360.81-33.55L360.81-33.55Q362.26-33.55 363.54-33 364.81-32.45 365.26-31.15L365.26-31.15Q364.96-30.85 364.41-28.93 363.86-27 363.26-24.25L363.26-24.25Q364.21-24.2 365.21-24.15 366.21-24.1 367.26-24L367.26-24Q367.36-23.7 367.41-23.35 367.46-23 367.46-22.6L367.46-22.6Q367.46-21.85 367.24-20.98 367.01-20.1 366.71-19.4L366.71-19.4Q365.51-19.5 364.46-19.63 363.41-19.75 362.41-19.8L362.41-19.8Q362.01-17.65 361.69-15.5 361.36-13.35 361.19-11.6 361.01-9.85 361.01-8.85L361.01-8.85Q361.01-6.75 361.79-6.05 362.56-5.35 363.66-5.35L363.66-5.35Q364.66-5.35 365.46-5.75 366.26-6.15 366.61-6.7L366.61-6.7 367.11-6.55Q366.81-4.5 365.51-2.98 364.21-1.45 362.41-0.63 360.61 0.2 358.81 0.2ZM380.11 0.35L380.11 0.35Q376.46 0.35 374.06-1.13 371.66-2.6 370.46-5.03 369.26-7.45 369.26-10.25L369.26-10.25Q369.26-12.9 370.29-15.58 371.31-18.25 373.29-20.45 375.26-22.65 378.09-24 380.91-25.35 384.46-25.35L384.46-25.35Q388.86-25.35 390.88-23.38 392.91-21.4 392.91-18.6L392.91-18.6Q392.91-16.2 391.63-14.18 390.36-12.15 388.26-10.93 386.16-9.7 383.66-9.7L383.66-9.7Q382.36-9.7 381.01-10.1 379.66-10.5 378.36-11.35L378.36-11.35Q378.61-8.25 380.16-6.85 381.71-5.45 383.86-5.45L383.86-5.45Q385.36-5.45 386.86-6.03 388.36-6.6 389.63-7.53 390.91-8.45 391.61-9.5L391.61-9.5 391.96-9.25Q391.96-6.65 390.88-4.83 389.81-3 388.06-1.85 386.31-0.7 384.24-0.18 382.16 0.35 380.11 0.35ZM381.26-13.15L381.26-13.15Q382.86-13.15 383.86-14.08 384.86-15 385.36-16.25 385.86-17.5 385.86-18.45L385.86-18.45Q385.86-19.6 385.21-20.38 384.56-21.15 383.41-21.15L383.41-21.15Q382.51-21.15 381.44-20.5 380.36-19.85 379.51-18.28 378.66-16.7 378.41-13.9L378.41-13.9Q380.01-13.15 381.26-13.15ZM401.26 0.15L401.26 0.15Q399.41 0.15 397.91-1.33 396.41-2.8 396.41-5.45L396.41-5.45Q396.41-6.75 396.76-8.4 397.11-10.05 397.53-11.75 397.96-13.45 398.31-14.95 398.66-16.45 398.66-17.4L398.66-17.4Q398.66-18.4 398.26-18.98 397.86-19.55 397.21-19.55L397.21-19.55Q396.36-19.55 395.36-18.55L395.36-18.55 395.06-18.75Q395.01-19.55 395.41-20.65 395.81-21.75 396.63-22.78 397.46-23.8 398.76-24.5 400.06-25.2 401.86-25.2L401.86-25.2Q404.51-25.2 405.78-23.68 407.06-22.15 407.06-19.95L407.06-19.95Q407.06-19.15 406.91-18.4L406.91-18.4Q407.96-19.95 409.51-21.53 411.06-23.1 412.93-24.15 414.81-25.2 416.81-25.2L416.81-25.2Q419.16-25.2 420.01-23.7 420.86-22.2 420.86-19.95L420.86-19.95Q420.86-17.85 420.41-15.45 419.96-13.05 419.51-10.83 419.06-8.6 419.06-7.1L419.06-7.1Q419.06-5.1 420.21-5.1L420.21-5.1Q420.81-5.1 421.26-5.48 421.71-5.85 421.86-6.2L421.86-6.2 422.21-6.05Q422.21-4.2 421.18-2.8 420.16-1.4 418.61-0.63 417.06 0.15 415.46 0.15L415.46 0.15Q413.51 0.15 412.01-1.2 410.51-2.55 410.51-5.6L410.51-5.6Q410.51-7.4 410.98-9.5 411.46-11.6 411.91-13.55 412.36-15.5 412.36-16.75L412.36-16.75Q412.36-17.5 412.08-17.93 411.81-18.35 411.11-18.35L411.11-18.35Q409.96-18.35 408.58-17.3 407.21-16.25 406.23-14.5 405.26-12.75 405.26-10.65L405.26-10.65Q405.26-9.3 405.58-8.05 405.91-6.8 405.91-5.35L405.91-5.35Q405.91-2.65 404.51-1.25 403.11 0.15 401.26 0.15ZM443.25-26.75L443.25-26.75Q441.25-26.75 439.98-27.98 438.7-29.2 438.7-31.05L438.7-31.05Q438.7-33.05 440.2-34.5 441.7-35.95 443.85-35.95L443.85-35.95Q445.85-35.95 447.13-34.7 448.4-33.45 448.4-31.6L448.4-31.6Q448.4-29.6 446.9-28.18 445.4-26.75 443.25-26.75ZM439.75 0.2L439.75 0.2Q437.8 0.2 436.25-1.18 434.7-2.55 434.7-5.6L434.7-5.6Q434.7-7.35 435.18-8.88 435.65-10.4 436.28-11.85 436.9-13.3 437.38-14.68 437.85-16.05 437.85-17.4L437.85-17.4Q437.85-18.6 437.45-19.13 437.05-19.65 436.5-19.65L436.5-19.65Q435.65-19.65 434.85-18.55L434.85-18.55 434.5-18.75Q434.7-20.75 435.78-22.18 436.85-23.6 438.43-24.4 440-25.2 441.55-25.2L441.55-25.2Q443.45-25.2 444.85-23.98 446.25-22.75 446.25-20L446.25-20Q446.25-18.35 445.78-16.53 445.3-14.7 444.68-12.9 444.05-11.1 443.58-9.55 443.1-8 443.1-6.9L443.1-6.9Q443.1-5.95 443.48-5.55 443.85-5.15 444.3-5.15L444.3-5.15Q444.75-5.15 445.18-5.43 445.6-5.7 445.8-6.05L445.8-6.05 446.15-5.95Q446.15-4.1 445.18-2.73 444.2-1.35 442.75-0.58 441.3 0.2 439.75 0.2ZM455.95 0.15L455.95 0.15Q454.1 0.15 452.6-1.33 451.1-2.8 451.1-5.45L451.1-5.45Q451.1-6.75 451.45-8.4 451.8-10.05 452.23-11.75 452.65-13.45 453-14.95 453.35-16.45 453.35-17.4L453.35-17.4Q453.35-18.4 452.95-18.98 452.55-19.55 451.9-19.55L451.9-19.55Q451.05-19.55 450.05-18.55L450.05-18.55 449.75-18.75Q449.7-19.55 450.1-20.65 450.5-21.75 451.33-22.78 452.15-23.8 453.45-24.5 454.75-25.2 456.55-25.2L456.55-25.2Q459.2-25.2 460.48-23.68 461.75-22.15 461.75-19.95L461.75-19.95Q461.75-19.15 461.6-18.4L461.6-18.4Q462.65-19.95 464.2-21.53 465.75-23.1 467.63-24.15 469.5-25.2 471.5-25.2L471.5-25.2Q473.85-25.2 474.7-23.7 475.55-22.2 475.55-19.95L475.55-19.95Q475.55-17.85 475.1-15.45 474.65-13.05 474.2-10.83 473.75-8.6 473.75-7.1L473.75-7.1Q473.75-5.1 474.9-5.1L474.9-5.1Q475.5-5.1 475.95-5.48 476.4-5.85 476.55-6.2L476.55-6.2 476.9-6.05Q476.9-4.2 475.88-2.8 474.85-1.4 473.3-0.63 471.75 0.15 470.15 0.15L470.15 0.15Q468.2 0.15 466.7-1.2 465.2-2.55 465.2-5.6L465.2-5.6Q465.2-7.4 465.68-9.5 466.15-11.6 466.6-13.55 467.05-15.5 467.05-16.75L467.05-16.75Q467.05-17.5 466.78-17.93 466.5-18.35 465.8-18.35L465.8-18.35Q464.65-18.35 463.28-17.3 461.9-16.25 460.93-14.5 459.95-12.75 459.95-10.65L459.95-10.65Q459.95-9.3 460.28-8.05 460.6-6.8 460.6-5.35L460.6-5.35Q460.6-2.65 459.2-1.25 457.8 0.15 455.95 0.15ZM495.65 0.2L495.65 0.2Q494.05 0.2 492.62-0.53 491.19-1.25 490.32-2.8 489.44-4.35 489.44-6.75L489.44-6.75Q489.44-8.05 489.69-10.15 489.94-12.25 490.37-14.75 490.8-17.25 491.25-19.75L491.25-19.75Q490.25-19.7 489.32-19.55 488.4-19.4 487.5-19.2L487.5-19.2 487.4-19.55Q488.4-20.75 489.5-21.6 490.6-22.45 491.8-23L491.8-23Q492.44-26.3 492.9-28.73 493.35-31.15 493.35-31.6L493.35-31.6Q493.35-32.45 494.67-33 496-33.55 497.65-33.55L497.65-33.55Q499.1-33.55 500.37-33 501.65-32.45 502.1-31.15L502.1-31.15Q501.8-30.85 501.25-28.93 500.69-27 500.1-24.25L500.1-24.25Q501.05-24.2 502.05-24.15 503.05-24.1 504.1-24L504.1-24Q504.19-23.7 504.25-23.35 504.3-23 504.3-22.6L504.3-22.6Q504.3-21.85 504.07-20.98 503.85-20.1 503.55-19.4L503.55-19.4Q502.35-19.5 501.3-19.63 500.25-19.75 499.25-19.8L499.25-19.8Q498.85-17.65 498.52-15.5 498.19-13.35 498.02-11.6 497.85-9.85 497.85-8.85L497.85-8.85Q497.85-6.75 498.62-6.05 499.4-5.35 500.5-5.35L500.5-5.35Q501.5-5.35 502.3-5.75 503.1-6.15 503.44-6.7L503.44-6.7 503.94-6.55Q503.65-4.5 502.35-2.98 501.05-1.45 499.25-0.63 497.44 0.2 495.65 0.2ZM511.19 0.2L511.19 0.2Q509.04 0.2 507.74-1.25 506.44-2.7 506.44-5.2L506.44-5.2Q506.44-6.55 506.79-8.72 507.14-10.9 507.67-13.53 508.19-16.15 508.69-18.88 509.19-21.6 509.54-24.15 509.89-26.7 509.89-28.65L509.89-28.65Q509.89-31.1 509.24-32.2L509.24-32.2 509.24-32.5Q510.34-33.75 511.64-34.35 512.94-34.95 514.19-34.95L514.19-34.95Q516.09-34.95 517.44-33.6 518.79-32.25 518.79-29.55L518.79-29.55Q518.79-28.1 518.39-26 517.99-23.9 517.44-21.6 516.89-19.3 516.34-17.3L516.34-17.3Q517.29-19.15 518.87-20.98 520.44-22.8 522.47-24 524.49-25.2 526.69-25.2L526.69-25.2Q529.19-25.2 530.07-23.65 530.94-22.1 530.94-19.8L530.94-19.8Q530.94-17.7 530.49-15.33 530.04-12.95 529.59-10.78 529.14-8.6 529.14-7.15L529.14-7.15Q529.14-5.05 530.39-5.05L530.39-5.05Q530.94-5.05 531.37-5.38 531.79-5.7 531.99-6.1L531.99-6.1 532.34-5.85Q532.34-3.9 531.39-2.55 530.44-1.2 528.97-0.5 527.49 0.2 525.94 0.2L525.94 0.2Q523.89 0.2 522.24-1.18 520.59-2.55 520.59-5.65L520.59-5.65Q520.59-7.4 521.07-9.45 521.54-11.5 521.99-13.43 522.44-15.35 522.44-16.65L522.44-16.65Q522.44-18.35 521.24-18.35L521.24-18.35Q520.14-18.35 518.84-17.25 517.54-16.15 516.57-14.5 515.59-12.85 515.29-11.25L515.29-11.25Q515.19-10.85 515.19-10.3L515.19-10.3Q515.19-9.05 515.57-7.9 515.94-6.75 515.94-5.2L515.94-5.2Q515.94-2.9 514.74-1.35 513.54 0.2 511.19 0.2ZM545.74 0.35L545.74 0.35Q542.09 0.35 539.69-1.13 537.29-2.6 536.09-5.03 534.89-7.45 534.89-10.25L534.89-10.25Q534.89-12.9 535.91-15.58 536.94-18.25 538.91-20.45 540.89-22.65 543.71-24 546.54-25.35 550.09-25.35L550.09-25.35Q554.49-25.35 556.51-23.38 558.54-21.4 558.54-18.6L558.54-18.6Q558.54-16.2 557.26-14.18 555.99-12.15 553.89-10.93 551.79-9.7 549.29-9.7L549.29-9.7Q547.99-9.7 546.64-10.1 545.29-10.5 543.99-11.35L543.99-11.35Q544.24-8.25 545.79-6.85 547.34-5.45 549.49-5.45L549.49-5.45Q550.99-5.45 552.49-6.03 553.99-6.6 555.26-7.53 556.54-8.45 557.24-9.5L557.24-9.5 557.59-9.25Q557.59-6.65 556.51-4.83 555.44-3 553.69-1.85 551.94-0.7 549.86-0.18 547.79 0.35 545.74 0.35ZM546.89-13.15L546.89-13.15Q548.49-13.15 549.49-14.08 550.49-15 550.99-16.25 551.49-17.5 551.49-18.45L551.49-18.45Q551.49-19.6 550.84-20.38 550.19-21.15 549.04-21.15L549.04-21.15Q548.14-21.15 547.06-20.5 545.99-19.85 545.14-18.28 544.29-16.7 544.04-13.9L544.04-13.9Q545.64-13.15 546.89-13.15ZM578.53 0.45L578.53 0.45Q575.43 0.45 573.38-0.4 571.33-1.25 570.33-2.58 569.33-3.9 569.33-5.25L569.33-5.25Q569.33-7.15 571.03-8.63 572.73-10.1 575.63-10.1L575.63-10.1Q575.63-7.55 576.28-6.03 576.93-4.5 577.96-3.85 578.98-3.2 579.93-3.2L579.93-3.2Q581.08-3.2 581.86-3.88 582.63-4.55 582.63-5.55L582.63-5.55Q582.63-6.95 581.18-8 579.73-9.05 577.43-10.35L577.43-10.35Q576.28-11.05 574.93-11.98 573.58-12.9 572.63-14.23 571.68-15.55 571.68-17.4L571.68-17.4Q571.68-19.35 572.81-20.85 573.93-22.35 575.78-23.38 577.63-24.4 579.78-24.93 581.93-25.45 583.98-25.45L583.98-25.45Q587.83-25.45 589.78-23.9 591.73-22.35 591.73-20.6L591.73-20.6Q591.73-19.1 590.23-17.9 588.73-16.7 585.63-16.7L585.63-16.7Q585.68-19.25 584.58-20.43 583.48-21.6 582.23-21.6L582.23-21.6Q581.33-21.6 580.73-21.05 580.13-20.5 580.13-19.45L580.13-19.45Q580.13-18.25 580.91-17.38 581.68-16.5 582.86-15.83 584.03-15.15 585.28-14.55L585.28-14.55Q586.98-13.75 588.48-12.85 589.98-11.95 590.93-10.8 591.88-9.65 591.88-8L591.88-8Q591.88-5.75 590.06-3.83 588.23-1.9 585.18-0.73 582.13 0.45 578.53 0.45ZM601.88 0.2L601.88 0.2Q600.28 0.2 598.86-0.53 597.43-1.25 596.56-2.8 595.68-4.35 595.68-6.75L595.68-6.75Q595.68-8.05 595.93-10.15 596.18-12.25 596.61-14.75 597.03-17.25 597.48-19.75L597.48-19.75Q596.48-19.7 595.56-19.55 594.63-19.4 593.73-19.2L593.73-19.2 593.63-19.55Q594.63-20.75 595.73-21.6 596.83-22.45 598.03-23L598.03-23Q598.68-26.3 599.13-28.73 599.58-31.15 599.58-31.6L599.58-31.6Q599.58-32.45 600.91-33 602.23-33.55 603.88-33.55L603.88-33.55Q605.33-33.55 606.61-33 607.88-32.45 608.33-31.15L608.33-31.15Q608.03-30.85 607.48-28.93 606.93-27 606.33-24.25L606.33-24.25Q607.28-24.2 608.28-24.15 609.28-24.1 610.33-24L610.33-24Q610.43-23.7 610.48-23.35 610.53-23 610.53-22.6L610.53-22.6Q610.53-21.85 610.31-20.98 610.08-20.1 609.78-19.4L609.78-19.4Q608.58-19.5 607.53-19.63 606.48-19.75 605.48-19.8L605.48-19.8Q605.08-17.65 604.76-15.5 604.43-13.35 604.26-11.6 604.08-9.85 604.08-8.85L604.08-8.85Q604.08-6.75 604.86-6.05 605.63-5.35 606.73-5.35L606.73-5.35Q607.73-5.35 608.53-5.75 609.33-6.15 609.68-6.7L609.68-6.7 610.18-6.55Q609.88-4.5 608.58-2.98 607.28-1.45 605.48-0.63 603.68 0.2 601.88 0.2ZM630.63 0.25L630.63 0.25Q628.88 0.25 627.58-0.9 626.28-2.05 626.28-4.65L626.28-4.65Q626.28-4.9 626.28-5.15 626.28-5.4 626.33-5.65L626.33-5.65Q624.83-2.65 622.95-1.23 621.08 0.2 619.18 0.2L619.18 0.2Q617.43 0.2 615.88-1.03 614.33-2.25 613.38-4.65 612.43-7.05 612.43-10.45L612.43-10.45Q612.43-13.95 613.4-16.7 614.38-19.45 615.98-21.35 617.58-23.25 619.48-24.23 621.38-25.2 623.18-25.2L623.18-25.2Q625.18-25.2 626.78-23.98 628.38-22.75 628.98-20.1L628.98-20.1Q629.13-20.95 629.2-21.65 629.28-22.35 629.28-22.6L629.28-22.6Q629.33-23.95 630.65-24.6 631.98-25.25 633.58-25.25L633.58-25.25Q634.98-25.25 636.23-24.7 637.48-24.15 637.93-22.85L637.93-22.85 638.03-22.55Q637.43-21.2 636.83-19.3 636.23-17.4 635.73-15.33 635.23-13.25 634.93-11.28 634.63-9.3 634.63-7.8L634.63-7.8Q634.63-6.15 634.98-5.53 635.33-4.9 635.83-4.9L635.83-4.9Q636.68-4.9 637.38-6.1L637.38-6.1 637.78-5.9Q637.78-4.2 636.68-2.8 635.58-1.4 633.93-0.58 632.28 0.25 630.63 0.25ZM622.48-6.1L622.48-6.1Q623.78-6.1 625.35-8.43 626.93-10.75 628.08-15.1L628.08-15.1Q628.18-15.55 628.28-15.98 628.38-16.4 628.43-16.8L628.43-16.8Q627.63-18.65 626.75-19.43 625.88-20.2 625.03-20.2L625.03-20.2Q623.78-20.2 622.7-18.88 621.63-17.55 620.95-15.55 620.28-13.55 620.28-11.55L620.28-11.55Q620.28-8.8 620.9-7.45 621.53-6.1 622.48-6.1ZM646.48 0.2L646.48 0.2Q644.68 0.2 643.28-1.28 641.88-2.75 641.88-5.45L641.88-5.45Q641.88-6.75 642.18-8.4 642.48-10.05 642.88-11.78 643.28-13.5 643.58-15.03 643.88-16.55 643.88-17.55L643.88-17.55Q643.88-18.6 643.5-19.23 643.13-19.85 642.53-19.85L642.53-19.85Q641.58-19.85 640.58-18.55L640.58-18.55 640.28-18.75Q640.23-19.55 640.63-20.65 641.03-21.75 641.88-22.78 642.73-23.8 644.05-24.5 645.38-25.2 647.18-25.2L647.18-25.2Q649.83-25.2 651.03-23.68 652.23-22.15 652.23-20L652.23-20Q652.23-19.65 652.2-19.28 652.18-18.9 652.13-18.55L652.13-18.55Q653.93-21.8 655.9-23.53 657.88-25.25 659.58-25.25L659.58-25.25Q661.18-25.25 661.93-24 662.68-22.75 662.68-21L662.68-21Q662.68-19.4 662.05-17.75 661.43-16.1 660.2-15.03 658.98-13.95 657.23-14L657.23-14 657.03-14.1Q656.98-15.4 656.18-16.15 655.38-16.9 654.38-16.9L654.38-16.9Q653.03-16.9 651.85-15.55 650.68-14.2 650.68-11.65L650.68-11.65Q650.68-10.1 651.03-8.3 651.38-6.5 651.38-5.25L651.38-5.25Q651.38-3.75 650.68-2.5 649.98-1.25 648.88-0.53 647.78 0.2 646.48 0.2ZM672.67 0.45L672.67 0.45Q669.57 0.45 667.52-0.4 665.47-1.25 664.47-2.58 663.47-3.9 663.47-5.25L663.47-5.25Q663.47-7.15 665.17-8.63 666.87-10.1 669.77-10.1L669.77-10.1Q669.77-7.55 670.42-6.03 671.07-4.5 672.1-3.85 673.12-3.2 674.07-3.2L674.07-3.2Q675.22-3.2 676-3.88 676.77-4.55 676.77-5.55L676.77-5.55Q676.77-6.95 675.32-8 673.87-9.05 671.57-10.35L671.57-10.35Q670.42-11.05 669.07-11.98 667.72-12.9 666.77-14.23 665.82-15.55 665.82-17.4L665.82-17.4Q665.82-19.35 666.95-20.85 668.07-22.35 669.92-23.38 671.77-24.4 673.92-24.93 676.07-25.45 678.12-25.45L678.12-25.45Q681.97-25.45 683.92-23.9 685.87-22.35 685.87-20.6L685.87-20.6Q685.87-19.1 684.37-17.9 682.87-16.7 679.77-16.7L679.77-16.7Q679.82-19.25 678.72-20.43 677.62-21.6 676.37-21.6L676.37-21.6Q675.47-21.6 674.87-21.05 674.27-20.5 674.27-19.45L674.27-19.45Q674.27-18.25 675.05-17.38 675.82-16.5 677-15.83 678.17-15.15 679.42-14.55L679.42-14.55Q681.12-13.75 682.62-12.85 684.12-11.95 685.07-10.8 686.02-9.65 686.02-8L686.02-8Q686.02-5.75 684.2-3.83 682.37-1.9 679.32-0.73 676.27 0.45 672.67 0.45Z" opacity="1" transform="matrix(1,0,0,1,0,0)" fill="#f27083" class="slogan-text-1" data-fill-palette-color="secondary" id="text-1"></path></svg></g></svg></g></svg></g></svg></g><g></g></svg></g></svg></g><defs></defs></svg><rect width="395.52" height="108.11754992123007" fill="none" stroke="none" visibility="hidden"></rect></g></svg></g></svg>